<svg xmlns="http://www.w3.org/2000/svg" viewBox="0 0 63.6 66.25"><defs><style>.cls-1{fill:#fff;}.cls-2{fill:none;stroke:#fff;stroke-miterlimit:10;stroke-width:1.5px;}</style></defs><g id="Layer_2" data-name="Layer 2"><g id="Layer_1-2" data-name="Layer 1"><g id="icon-data"><rect class="cls-1" y="20.32" width="0.97" height="1.01"/><rect class="cls-1" x="3.89" y="20.32" width="0.97" height="1.01"/><rect class="cls-1" x="7.78" y="20.32" width="0.97" height="1.01"/><rect class="cls-1" y="24.37" width="0.97" height="1.01"/><rect class="cls-1" x="3.89" y="24.37" width="0.97" height="1.01"/><rect class="cls-1" x="7.78" y="24.37" width="0.97" height="1.01"/><rect class="cls-1" y="28.42" width="0.97" height="1.01"/><rect class="cls-1" x="3.89" y="28.42" width="0.97" height="1.01"/><rect class="cls-1" x="7.78" y="28.42" width="0.97" height="1.01"/><rect class="cls-1" y="32.48" width="0.97" height="1.01"/><rect class="cls-1" x="3.89" y="32.48" width="0.97" height="1.01"/><rect class="cls-1" x="7.78" y="32.48" width="0.97" height="1.01"/><rect class="cls-1" y="36.53" width="0.97" height="1.01"/><rect class="cls-1" x="3.89" y="36.53" width="0.97" height="1.01"/><rect class="cls-1" x="7.78" y="36.53" width="0.97" height="1.01"/><rect class="cls-1" width="0.97" height="1.01"/><rect class="cls-1" x="3.89" width="0.97" height="1.01"/><rect class="cls-1" x="7.78" width="0.97" height="1.01"/><rect class="cls-1" y="4.05" width="0.97" height="1.01"/><rect class="cls-1" x="3.89" y="4.05" width="0.97" height="1.01"/><rect class="cls-1" x="7.78" y="4.05" width="0.97" height="1.01"/><rect class="cls-1" y="8.11" width="0.97" height="1.01"/><rect class="cls-1" x="3.89" y="8.11" width="0.97" height="1.01"/><rect class="cls-1" x="7.78" y="8.11" width="0.97" height="1.01"/><rect class="cls-1" y="12.16" width="0.97" height="1.01"/><rect class="cls-1" x="3.89" y="12.16" width="0.97" height="1.01"/><rect class="cls-1" x="7.78" y="12.16" width="0.97" height="1.01"/><rect class="cls-1" y="16.21" width="0.97" height="1.01"/><rect class="cls-1" x="3.89" y="16.21" width="0.97" height="1.01"/><rect class="cls-1" x="7.78" y="16.21" width="0.97" height="1.01"/><rect class="cls-1" x="12.06" width="0.97" height="1.01"/><rect class="cls-1" x="15.95" width="0.97" height="1.01"/><rect class="cls-1" x="19.84" width="0.97" height="1.01"/><rect class="cls-1" x="12.06" y="4.05" width="0.97" height="1.01"/><rect class="cls-1" x="15.95" y="4.05" width="0.97" height="1.01"/><rect class="cls-1" x="19.84" y="4.05" width="0.97" height="1.01"/><rect class="cls-1" x="12.06" y="8.11" width="0.97" height="1.01"/><rect class="cls-1" x="15.95" y="8.11" width="0.97" height="1.01"/><rect class="cls-1" x="23.73" width="0.97" height="1.01"/><rect class="cls-1" x="27.61" width="0.97" height="1.01"/><rect class="cls-1" x="23.73" y="4.05" width="0.97" height="1.01"/><rect class="cls-1" x="27.61" y="4.05" width="0.97" height="1.01"/><rect class="cls-1" x="62.63" y="44.92" width="0.97" height="1.01" transform="translate(126.23 90.85) rotate(180)"/><rect class="cls-1" x="58.74" y="44.92" width="0.97" height="1.01" transform="translate(118.45 90.85) rotate(180)"/><rect class="cls-1" x="54.85" y="44.92" width="0.97" height="1.01" transform="translate(110.68 90.85) rotate(180)"/><rect class="cls-1" x="62.63" y="40.87" width="0.97" height="1.01" transform="translate(126.23 82.75) rotate(180)"/><rect class="cls-1" x="58.74" y="40.87" width="0.97" height="1.01" transform="translate(118.45 82.75) rotate(180)"/><rect class="cls-1" x="54.85" y="40.87" width="0.97" height="1.01" transform="translate(110.68 82.75) rotate(180)"/><rect class="cls-1" x="62.63" y="36.81" width="0.97" height="1.01" transform="translate(126.23 74.64) rotate(180)"/><rect class="cls-1" x="58.74" y="36.81" width="0.97" height="1.01" transform="translate(118.45 74.64) rotate(180)"/><rect class="cls-1" x="54.85" y="36.81" width="0.97" height="1.01" transform="translate(110.68 74.64) rotate(180)"/><rect class="cls-1" x="62.63" y="32.76" width="0.97" height="1.01" transform="translate(126.23 66.54) rotate(180)"/><rect class="cls-1" x="58.74" y="32.76" width="0.97" height="1.01" transform="translate(118.45 66.54) rotate(180)"/><rect class="cls-1" x="54.85" y="32.76" width="0.97" height="1.01" transform="translate(110.68 66.54) rotate(180)"/><rect class="cls-1" x="62.63" y="28.71" width="0.97" height="1.01" transform="translate(126.23 58.43) rotate(180)"/><rect class="cls-1" x="58.74" y="28.71" width="0.97" height="1.01" transform="translate(118.45 58.43) rotate(180)"/><rect class="cls-1" x="54.85" y="28.71" width="0.97" height="1.01" transform="translate(110.68 58.43) rotate(180)"/><rect class="cls-1" x="62.63" y="65.24" width="0.97" height="1.01" transform="translate(126.23 131.49) rotate(180)"/><rect class="cls-1" x="58.74" y="65.24" width="0.97" height="1.01" transform="translate(118.45 131.49) rotate(180)"/><rect class="cls-1" x="54.85" y="65.24" width="0.97" height="1.01" transform="translate(110.68 131.49) rotate(180)"/><rect class="cls-1" x="62.63" y="61.18" width="0.97" height="1.01" transform="translate(126.23 123.38) rotate(180)"/><rect class="cls-1" x="58.74" y="61.18" width="0.97" height="1.01" transform="translate(118.45 123.38) rotate(180)"/><rect class="cls-1" x="54.85" y="61.18" width="0.97" height="1.01" transform="translate(110.68 123.38) rotate(180)"/><rect class="cls-1" x="62.63" y="57.13" width="0.97" height="1.01" transform="translate(126.23 115.28) rotate(180)"/><rect class="cls-1" x="58.74" y="57.13" width="0.97" height="1.01" transform="translate(118.45 115.28) rotate(180)"/><rect class="cls-1" x="54.85" y="57.13" width="0.97" height="1.01" transform="translate(110.68 115.28) rotate(180)"/><rect class="cls-1" x="62.63" y="53.08" width="0.97" height="1.01" transform="translate(126.23 107.17) rotate(180)"/><rect class="cls-1" x="58.74" y="53.08" width="0.97" height="1.01" transform="translate(118.45 107.17) rotate(180)"/><rect class="cls-1" x="54.85" y="53.08" width="0.97" height="1.01" transform="translate(110.68 107.17) rotate(180)"/><rect class="cls-1" x="50.62" y="53.08" width="0.97" height="1.01" transform="translate(102.2 107.17) rotate(180)"/><rect class="cls-1" x="46.68" y="53.08" width="0.97" height="1.01" transform="translate(94.33 107.17) rotate(180)"/><rect class="cls-1" x="62.63" y="49.02" width="0.97" height="1.01" transform="translate(126.23 99.06) rotate(180)"/><rect class="cls-1" x="58.74" y="49.02" width="0.97" height="1.01" transform="translate(118.45 99.06) rotate(180)"/><rect class="cls-1" x="54.85" y="49.02" width="0.97" height="1.01" transform="translate(110.68 99.06) rotate(180)"/><rect class="cls-1" x="50.62" y="49.02" width="0.97" height="1.01" transform="translate(102.2 99.06) rotate(180)"/><rect class="cls-1" x="50.57" y="65.24" width="0.97" height="1.01" transform="translate(102.1 131.49) rotate(180)"/><rect class="cls-1" x="46.68" y="65.24" width="0.97" height="1.01" transform="translate(94.33 131.49) rotate(180)"/><rect class="cls-1" x="42.79" y="65.24" width="0.97" height="1.01" transform="translate(86.55 131.49) rotate(180)"/><rect class="cls-1" x="50.57" y="61.18" width="0.97" height="1.01" transform="translate(102.1 123.38) rotate(180)"/><rect class="cls-1" x="46.68" y="61.18" width="0.97" height="1.01" transform="translate(94.33 123.38) rotate(180)"/><rect class="cls-1" x="42.79" y="61.18" width="0.97" height="1.01" transform="translate(86.55 123.38) rotate(180)"/><rect class="cls-1" x="50.57" y="57.13" width="0.97" height="1.01" transform="translate(102.1 115.28) rotate(180)"/><rect class="cls-1" x="46.68" y="57.13" width="0.97" height="1.01" transform="translate(94.33 115.28) rotate(180)"/><rect class="cls-1" x="42.79" y="57.13" width="0.97" height="1.01" transform="translate(86.55 115.28) rotate(180)"/><rect class="cls-1" x="38.9" y="65.24" width="0.97" height="1.01" transform="translate(78.78 131.49) rotate(180)"/><rect class="cls-1" x="35.01" y="65.24" width="0.97" height="1.01" transform="translate(71 131.49) rotate(180)"/><rect class="cls-1" x="38.9" y="61.18" width="0.97" height="1.01" transform="translate(78.78 123.38) rotate(180)"/><path class="cls-2" d="M46.73,33.79s-6.44,7.93-14.4,7.93-14.41-7.93-14.41-7.93,6.45-7.94,14.41-7.94S46.73,33.79,46.73,33.79Z"/><ellipse class="cls-2" cx="32.33" cy="33.79" rx="5.38" ry="5.74"/><ellipse class="cls-1" cx="32.33" cy="33.79" rx="1.69" ry="1.77"/><path class="cls-2" d="M32.33,61.17h0A31.31,31.31,0,0,1,13.69,32.22V14.35L32.33,8.17,51,14.35V32.22A31.32,31.32,0,0,1,32.33,61.17Z"/><line class="cls-2" x1="32.01" y1="8.17" x2="32.01" y2="26.28"/><line class="cls-2" x1="32.01" y1="41.74" x2="32.01" y2="61.61"/></g></g></g></svg>